<svg xmlns="http://www.w3.org/2000/svg" width="1600" height="900" viewBox="0 0 1600 900"><defs><linearGradient id="sky" x2="0" y2="1"><stop stop-color="#192e37"/><stop offset="1" stop-color="#8a8660"/></linearGradient><linearGradient id="gold" x2=".3" y2="1"><stop stop-color="#fff3bd"/><stop offset="1" stop-color="#b79056"/></linearGradient><radialGradient id="halo"><stop stop-color="#ffdb8e" stop-opacity=".5"/><stop offset="1" stop-color="#ffdb8e" stop-opacity="0"/></radialGradient></defs><rect width="1600" height="900" fill="url(#sky)"/><circle cx="1260" cy="145" r="68" fill="#dfc896" opacity=".65"/><path d="M0 520L300 210L510 437L780 175L1100 440L1360 285L1600 485V900H0Z" fill="#314a4b"/><path d="M0 640Q420 460 810 610T1600 580V900H0Z" fill="#3e5549"/><path d="M0 768Q570 596 1600 739V900H0Z" fill="#273e35"/><g transform="translate(1180 620) scale(1.2)"><path d="M-90 0V-100H90V0" fill="#5b4b35"/><path d="M-130-85L0-190L130-85Z" fill="#aa8b56"/><path d="M-20 0V-75H20V0" fill="#282f29"/><path d="M-115-87L0-178L115-87M-110-73L0-165L110-73" fill="none" stroke="#c3a36e" stroke-width="5"/></g><ellipse cx="800" cy="690" rx="160" ry="28" fill="#171d20"/><path d="M710 660L870 698M715 697L880 655" stroke="#65513c" stroke-width="20"/><path d="M770 672Q698 596 801 470Q780 570 846 594Q874 650 815 681Z" fill="#dc783d"/><path d="M798 674Q760 628 810 567Q805 620 826 648Z" fill="#f8d17b"/><rect y="830" width="1600" height="70" fill="#182b28" opacity=".35"/></svg>