<svg xmlns="http://www.w3.org/2000/svg" width="1600" height="900" viewBox="0 0 1600 900"><defs><linearGradient id="sky" x2="0" y2="1"><stop stop-color="#192e37"/><stop offset="1" stop-color="#8a8660"/></linearGradient><linearGradient id="gold" x2=".3" y2="1"><stop stop-color="#fff3bd"/><stop offset="1" stop-color="#b79056"/></linearGradient><radialGradient id="halo"><stop stop-color="#ffdb8e" stop-opacity=".5"/><stop offset="1" stop-color="#ffdb8e" stop-opacity="0"/></radialGradient></defs><rect width="1600" height="900" fill="url(#sky)"/><circle cx="1260" cy="145" r="68" fill="#dfc896" opacity=".65"/><path d="M0 520L300 210L510 437L780 175L1100 440L1360 285L1600 485V900H0Z" fill="#314a4b"/><path d="M0 640Q420 460 810 610T1600 580V900H0Z" fill="#3e5549"/><path d="M0 768Q570 596 1600 739V900H0Z" fill="#273e35"/><g transform="translate(720 690) scale(2.5)"><path d="M-90 0V-100H90V0" fill="#5b4b35"/><path d="M-130-85L0-190L130-85Z" fill="#aa8b56"/><path d="M-20 0V-75H20V0" fill="#282f29"/><path d="M-115-87L0-178L115-87M-110-73L0-165L110-73" fill="none" stroke="#c3a36e" stroke-width="5"/></g><path d="M460 660V520Q460 440 550 440Q640 440 640 520V660Z" fill="#977152"/><path d="M488 650V565Q550 510 614 565V650Z" fill="#dc783d"/><path d="M870 596H1110L1030 637H895L916 664H1040V690H866Z" fill="#323c3c"/><path d="M528 530Q495 420 570 308" fill="none" stroke="#a3ad9a" opacity=".3" stroke-width="40"/><rect y="830" width="1600" height="70" fill="#182b28" opacity=".35"/></svg>